# xmcd CD database file
#
# Track frame offsets:
#	150
#	17140
#	34708
#	50248
#	72785
#	91143
#	113273
#	133938
#	152598
#
# Disc length: 2378 seconds
#
# Revision: 7
# Processed by: cddbd v1.5.2PL0 Copyright (c) Steve Scherf et al.
# Submitted via: CDex 1.77
#
DISCID=6d094809
DTITLE=Terumasa Hino - New York Times
DYEAR=1983
DGENRE=Jazz
TTITLE0=Otis
TTITLE1=Champagne Rain
TTITLE2=New York Times
TTITLE3=Morning After
TTITLE4=Dream Cream
TTITLE5=Key Breeze
TTITLE6=Newborn Swing
TTITLE7=Freeland
TTITLE8=Deep Blue
EXTD=YEAR: 1983
EXTT0=
EXTT1=
EXTT2=
EXTT3=
EXTT4=
EXTT5=
EXTT6=
EXTT7=
EXTT8=
PLAYORDER=
